#!OML:ASF F:\VICON\USERDATA\INSTALL\rory3\rory3.ASF
:FULLY-SPECIFIED
:DEGREES
1
root -0.6005580000000001 17.678 -20.36769999999993 4.730289999999998 3.0089799999999984 -4.628489999999996
lfemur -43.310699999999954 -1.0503499999999995 -14.280199999999981
ltibia 86.08489999999993
lfoot 1.3799099999999958 -5.574839999999993
ltoes -18.936599999999995
rfemur -0.48970300000003064 5.218819999999993 36.12390000000001
rtibia 39.5366
rfoot -12.576999999999973 -15.406500000000001
rtoes -18.299100000000056
lowerback 1.0 1.5460599999999984 4.387779999999998
upperback -0.308210000000001 2.995800000000005 2.7182699999999995
thorax -8.054430000000002 1.3304400000000012 -0.18979899999999872
lowerneck -17.9025 -5.661079999999998 -2.0292899999999996
upperneck 13.571699999999998 -7.474170000000003 1.7878299999999978
head 7.2342 -3.5169599999999983 0.06031530000000129
lclavicle 1.2722199999999972e-14 1.908329999999998e-14
lhumerus -60.9594 -13.0437 100.803
lradius 101.88399999999999
lwrist 26.658500000000004
lhand -32.2647 -4.128509999999999
lfingers 7.12502
lthumb -5.50431 25.78000000000001
rclavicle 1.2722199999999972e-14 1.908329999999998e-14
rhumerus -39.95700000000001 10.686899999999998 -95.7996
rradius 119.667
rwrist -18.89160000000001
rhand -21.212700000000005 1.0
rfingers 7.12502
rthumb 5.168969999999993 12.523400000000004
2
root -0.5881060000000001 17.8222 -19.805199999999985 4.595740000000001 4.163699999999997 -4.434949999999995
lfemur -43.32010000000001 -2.5099099999999988 -14.767400000000006
ltibia 81.50750000000005
lfoot 2.418459999999998 -5.999660000000007
ltoes -10.826900000000002
rfemur 1.6462600000000158 4.346610000000004 35.93739999999999
rtibia 37.92789999999998
rfoot -8.59221000000002 -13.966899999999992
rtoes -19.241399999999942
lowerback 1.0 1.446050000000001 4.710150000000003
upperback -0.07610150000000093 2.8315499999999987 2.5857699999999983
thorax -7.29208 1.25625 -0.44959600000000044
lowerneck -17.852999999999998 -5.805390000000004 -2.0173400000000004
upperneck 13.538199999999998 -7.666799999999996 1.7526699999999995
head 7.21625 -3.612700000000001 0.02663470000000079
lclavicle -1.381550000000002e-14 -1.987849999999998e-14
lhumerus -61.48690000000001 -12.4288 100.434
lradius 102.21000000000001
lwrist 26.170199999999998
lhand -31.6588 -3.7596800000000075
lfingers 7.12502
lthumb -4.91927 26.163199999999996
rclavicle -1.381550000000002e-14 -1.987849999999998e-14
rhumerus -39.89130000000002 11.3427 -95.9163
rradius 120.75500000000001
rwrist -17.606600000000007
rhand -20.931399999999996 1.0
rfingers 7.12502
rthumb 5.440569999999996 12.185300000000002
3
root -0.5713400000000002 17.9398 -19.24970000000001 4.5310999999999995 5.171980000000003 -4.088799999999997
lfemur -43.14580000000003 -3.779140000000001 -15.417499999999988
ltibia 76.79060000000004
lfoot 2.0452999999999975 -5.496180000000001
ltoes -13.2238
rfemur 3.5800400000000288 3.573810000000004 35.4963
rtibia 36.40670000000006
rfoot -3.9688399999999864 -12.228100000000005
rtoes -19.101299999999974
lowerback 1.0 1.410639999999999 4.831539999999994
upperback 0.09536849999999786 2.7136900000000015 2.4249100000000006
thorax -6.546169999999994 1.2123999999999986 -0.6341689999999996
lowerneck -17.285299999999996 -5.893720000000002 -2.0924300000000002
upperneck 13.4028 -7.7817699999999945 1.7883399999999985
head 7.08311 -3.676210000000001 0.05542590000000025
lclavicle 1.0436200000000022e-14 8.746529999999985e-15
lhumerus -62.07109999999999 -11.788200000000002 100.065
lradius 102.58500000000001
lwrist 26.5193
lhand -31.9066 -2.497529999999996
lfingers 7.12502
lthumb -5.158570000000001 27.4197
rclavicle 1.0436200000000022e-14 8.746529999999985e-15
rhumerus -40.03329999999998 12.0234 -96.0715
rradius 121.55299999999997
rwrist -15.971099999999996
rhand -21.0022 1.0
rfingers 7.12502
rthumb 5.372259999999997 11.237000000000005
4
root -0.5463790000000002 18.0387 -18.680199999999978 4.648780000000002 5.7036599999999975 -3.8006500000000023
lfemur -42.83690000000001 -4.5484999999999935 -16.025500000000005
ltibia 71.79879999999999
lfoot 1.2702499999999994 -4.986569999999996
ltoes -14.561499999999992
rfemur 5.370619999999963 3.2490399999999973 34.98719999999999
rtibia 34.86740000000006
rfoot 1.7100900000000014 -10.441900000000004
rtoes -17.794100000000032
lowerback 1.0 1.497709999999998 4.946460000000004
upperback 0.3555540000000016 2.7268199999999982 2.279840000000001
thorax -5.49396000000001 1.2428900000000016 -0.805583000000002
lowerneck -17.075900000000004 -5.959360000000002 -2.11826
upperneck 13.404499999999999 -7.861750000000004 1.7473899999999987
head 7.04915 -3.721929999999996 0.04339079999999906
lclavicle 5.287669999999991e-14 8.746529999999985e-15
lhumerus -62.28800000000002 -11.0045 99.536
lradius 102.64000000000001
lwrist 27.2953
lhand -31.3852 -1.629370000000004
lfingers 7.12502
lthumb -4.6551 28.299500000000002
rclavicle 5.287669999999991e-14 8.746529999999985e-15
rhumerus -40.07230000000001 12.594300000000004 -96.04520000000001
rradius 122.46499999999999
rwrist -15.6496
rhand -20.3502 1.0
rfingers 7.12502
rthumb 6.001710000000004 12.598200000000006
5
root -0.5196769999999997 18.1576 -18.09070000000001 4.6523400000000015 5.881300000000003 -3.4607
lfemur -42.055699999999945 -5.11708999999999 -16.693099999999998
ltibia 66.35960000000001
lfoot 0.7580879999999941 -4.7691100000000075
ltoes -14.158900000000003
rfemur 7.339209999999948 3.1687799999999973 34.34819999999999
rtibia 33.374300000000034
rfoot 7.753469999999995 -8.84374
rtoes -17.84400000000004
lowerback 1.0 1.6849200000000009 5.0295400000000035
upperback 0.7646459999999994 2.8636699999999964 2.0698399999999992
thorax -4.32767 1.3407400000000025 -1.037220000000001
lowerneck -17.452500000000004 -6.07777 -2.07021
upperneck 13.479600000000001 -8.023609999999996 1.7195800000000028
head 7.136569999999999 -3.7943600000000015 -0.004157419999998968
lclavicle -5.4665800000000085e-15 -1.908329999999996e-14
lhumerus -62.28120000000003 -10.253400000000006 98.9421
lradius 102.56399999999998
lwrist 28.106099999999998
lhand -31.0125 -1.5170299999999999
lfingers 7.12502
lthumb -4.295180000000001 28.419400000000003
rclavicle -5.4665800000000085e-15 -1.908329999999996e-14
rhumerus -39.93279999999999 13.235800000000003 -96.0725
rradius 123.08399999999999
rwrist -14.759
rhand -16.5675 1.0
rfingers 7.12502
rthumb 9.652680000000004 21.905200000000022
